<?xml version="1.0" standalone="no"?>
<!DOCTYPE svg PUBLIC "-//W3C//DTD SVG 20010904//EN"
 "http://www.w3.org/TR/2001/REC-SVG-20010904/DTD/svg10.dtd">
<svg version="1.0" xmlns="http://www.w3.org/2000/svg"
 width="500.000000pt" height="500.000000pt" viewBox="0 0 500.000000 500.000000"
 preserveAspectRatio="xMidYMid meet">

<g transform="translate(0.000000,500.000000) scale(0.100000,-0.100000)"
fill="#000000" stroke="none">
<path d="M2408 3910 c-15 -4 -44 -18 -65 -31 l-37 -23 185 -178 c225 -218 247
-233 349 -233 64 0 82 4 123 28 26 15 47 32 47 37 0 5 -11 17 -25 28 -13 11
-98 90 -187 177 -180 174 -228 205 -313 204 -27 0 -62 -4 -77 -9z"/>
<path d="M2203 3737 c-33 -48 -48 -123 -34 -172 15 -57 60 -122 96 -140 16 -8
26 -15 21 -15 -5 0 -1 -9 9 -20 10 -11 22 -17 26 -14 11 6 -8 46 -27 57 -8 4
-14 13 -14 20 0 7 4 6 10 -3 8 -13 10 -12 11 5 1 11 1 26 0 34 -2 7 2 10 7 7
5 -3 7 7 5 22 -2 15 -6 51 -8 81 -4 47 -2 51 10 35 7 -11 17 -16 21 -11 4 4 2
7 -4 7 -6 0 -9 7 -6 15 5 13 9 13 23 3 14 -11 14 -11 3 3 -7 10 -22 15 -35 13
-12 -2 -16 -1 -8 2 11 5 8 10 -10 21 -18 11 -19 13 -4 8 14 -4 8 6 -20 34 -21
23 -42 41 -45 41 -3 0 -15 -15 -27 -33z m111 -343 c3 -8 2 -12 -4 -9 -6 3 -10
10 -10 16 0 14 7 11 14 -7z"/>
<path d="M2340 3370 c-12 -7 -12 -11 -2 -20 6 -5 10 -7 7 -4 -3 4 0 13 6 21
13 15 10 16 -11 3z"/>
<path d="M2042 3281 c-108 -38 -111 -29 103 -237 105 -101 206 -192 225 -201
78 -38 219 -24 264 26 16 18 8 27 -171 201 -120 117 -203 189 -231 202 -63 29
-128 32 -190 9z"/>
<path d="M2807 2583 c-4 -3 -7 -188 -7 -410 l0 -403 60 0 c54 0 60 2 60 20 0
20 1 20 43 -2 60 -33 213 -33 272 -1 143 77 201 245 132 385 -47 96 -135 155
-246 165 -52 5 -104 -7 -183 -42 -17 -7 -18 4 -18 144 l0 151 -53 0 c-30 0
-57 -3 -60 -7z m366 -377 c67 -27 116 -118 103 -189 -16 -86 -103 -152 -188
-144 -150 13 -220 184 -120 291 51 54 136 71 205 42z"/>
<path d="M1910 2244 c0 -299 2 -339 17 -365 10 -16 21 -29 26 -29 4 0 6 4 3 9
-4 5 -3 11 1 14 5 2 2 2 -6 0 -10 -2 -11 2 -5 19 4 13 9 173 11 356 l3 332
-25 0 -25 0 0 -336z"/>
<path d="M3490 2050 l0 -280 60 0 60 0 0 280 0 280 -60 0 -60 0 0 -280z"/>
<path d="M3744 2316 c-3 -7 -4 -33 -2 -57 l3 -44 121 -5 122 -5 -144 -173
c-137 -166 -144 -176 -144 -218 l0 -44 240 0 240 0 0 55 0 55 -150 0 c-82 0
-150 2 -150 5 0 3 63 82 140 175 139 168 140 170 140 220 l0 50 -205 0 c-166
0 -207 -3 -211 -14z"/>
<path d="M2200 2143 c0 -98 5 -195 11 -216 10 -36 67 -113 77 -103 2 3 13 -5
24 -17 18 -20 18 -20 -1 14 -21 36 -20 52 4 43 7 -3 15 2 19 11 3 9 2 13 -4
10 -5 -3 -9 9 -8 28 1 19 -2 39 -6 46 -4 7 -7 81 -7 166 1 120 -1 155 -11 155
-9 0 -9 3 2 10 12 8 12 10 -5 11 l-20 0 20 9 c14 6 4 9 -37 9 l-58 1 0 -177z"/>
<path d="M848 2292 c-56 -34 -75 -129 -39 -187 10 -16 33 -38 52 -48 34 -18
34 -18 11 0 -20 17 -22 21 -9 31 8 7 13 22 10 32 -3 12 0 20 7 20 7 0 10 6 7
14 -3 8 -1 17 6 20 9 3 9 5 0 5 -7 1 -13 6 -13 12 0 5 4 8 9 4 5 -3 13 0 17 6
4 7 3 10 -2 7 -16 -10 -54 11 -54 29 1 17 1 17 11 1 11 -19 39 -25 39 -8 0 5
-7 7 -15 4 -18 -7 -20 12 -2 20 10 5 10 7 0 12 -7 3 -13 12 -13 19 0 7 6 16
13 18 6 3 8 6 2 6 -5 0 -22 -7 -37 -17z"/>
<path d="M1332 2264 c-18 -14 -29 -30 -26 -36 4 -7 2 -8 -4 -4 -17 10 -60 -63
-71 -121 -6 -28 -7 -73 -2 -101 9 -57 57 -146 73 -136 6 4 8 3 5 -3 -9 -14 29
-47 44 -37 7 4 10 3 5 -4 -7 -11 11 -28 21 -19 7 8 -19 107 -29 107 -13 0 -9
28 5 33 9 4 9 8 -2 15 -10 7 -14 33 -14 91 0 71 3 84 22 100 21 19 29 37 11
26 -6 -3 -7 1 -4 10 4 9 13 14 23 11 9 -3 6 2 -6 10 -13 9 -23 23 -23 31 0 8
-4 12 -9 8 -5 -3 -12 -1 -16 4 -3 6 3 8 15 6 22 -4 32 6 22 22 -5 8 -18 4 -40
-13z m28 -416 c0 -7 -5 -6 -13 1 -8 6 -18 7 -22 3 -5 -4 -5 -2 -1 5 8 14 36 6
36 -9z"/>
<path d="M1369 1914 c6 -12 7 -24 4 -28 -3 -3 -4 -6 -1 -6 3 0 12 8 19 18 7 9
9 14 5 10 -5 -4 -15 0 -23 10 -13 15 -13 15 -4 -4z"/>
<path d="M825 1859 c-19 -17 -32 -35 -29 -40 3 -5 23 -18 44 -29 l38 -19 -5
20 c-4 16 -8 18 -14 7 -5 -7 -9 -9 -9 -4 0 5 8 18 17 28 14 15 15 23 5 38 -9
14 -8 20 1 23 9 4 9 6 0 6 -7 1 -28 -13 -48 -30z"/>
<path d="M1680 1726 c0 -9 40 -13 46 -5 3 5 -6 9 -20 9 -14 0 -26 -2 -26 -4z"/>
<path d="M832 1688 c-21 -21 -13 -39 23 -54 19 -8 35 -21 35 -30 0 -13 -7 -15
-35 -10 -40 8 -49 -10 -11 -20 39 -9 66 4 66 32 0 19 -8 29 -35 40 -41 17 -38
34 6 34 18 0 28 4 24 10 -9 14 -58 13 -73 -2z"/>
<path d="M987 1682 c-23 -25 -21 -68 3 -92 41 -41 110 -13 110 44 0 19 -8 40
-18 49 -25 22 -75 21 -95 -1z m81 -14 c30 -30 3 -82 -40 -76 -29 4 -47 50 -28
72 15 19 51 21 68 4z"/>
<path d="M1170 1635 l0 -65 40 0 c22 0 40 5 40 10 0 6 -13 10 -30 10 -30 0
-30 1 -30 55 0 30 -4 55 -10 55 -6 0 -10 -28 -10 -65z"/>
<path d="M1310 1647 c0 -29 5 -58 12 -65 20 -20 65 -14 82 10 21 29 22 108 2
108 -11 0 -16 -15 -18 -52 -3 -49 -5 -53 -28 -53 -23 0 -25 4 -28 53 -4 68
-22 68 -22 -1z"/>
<path d="M1497 1682 c-33 -36 -11 -112 32 -112 8 0 11 -8 8 -20 -3 -11 -1 -18
4 -14 5 3 9 11 9 19 0 7 7 15 15 19 26 9 17 27 -10 20 -31 -8 -55 10 -55 40 0
30 18 46 52 46 15 0 28 5 28 10 0 18 -66 11 -83 -8z"/>
<path d="M1657 1682 c-23 -25 -21 -68 3 -92 41 -41 110 -13 110 44 0 19 -8 40
-18 49 -25 22 -75 21 -95 -1z m81 -14 c17 -17 15 -53 -3 -68 -38 -31 -96 27
-65 65 15 18 51 20 68 3z"/>
<path d="M1840 1635 l0 -65 45 0 c25 0 45 5 45 10 0 6 -16 10 -35 10 -28 0
-35 4 -35 20 0 15 7 20 25 20 14 0 25 5 25 10 0 6 -11 10 -25 10 -16 0 -25 6
-25 15 0 10 11 15 35 15 19 0 35 5 35 10 0 6 -20 10 -45 10 l-45 0 0 -65z"/>
<path d="M1997 1693 c-18 -17 -5 -44 28 -60 42 -20 40 -39 -4 -36 -39 1 -37
-21 3 -25 61 -7 77 50 21 74 -45 18 -45 34 1 34 21 0 33 4 29 10 -7 11 -68 14
-78 3z"/>
<path d="M2214 1638 l1 -63 48 -3 c28 -2 47 1 47 7 0 6 -16 11 -35 11 -28 0
-35 4 -35 20 0 15 7 20 25 20 14 0 25 5 25 10 0 6 -11 10 -25 10 -16 0 -25 6
-25 15 0 10 11 15 35 15 19 0 35 5 35 10 0 6 -22 10 -49 10 l-48 0 1 -62z"/>
<path d="M2376 1669 c-9 -48 -7 -99 4 -99 6 0 10 15 10 34 0 49 15 52 29 6 6
-22 15 -40 20 -40 4 0 16 19 26 43 l19 42 4 -42 c2 -29 8 -43 17 -43 10 0 13
8 10 28 -2 15 -7 44 -10 65 -8 52 -32 48 -46 -9 -13 -50 -20 -48 -39 9 -14 45
-35 48 -44 6z"/>
<path d="M2640 1690 c0 -5 9 -10 20 -10 18 0 20 -7 20 -55 0 -30 5 -55 10 -55
6 0 10 25 10 55 0 48 2 55 20 55 11 0 20 5 20 10 0 6 -22 10 -50 10 -27 0 -50
-4 -50 -10z"/>
<path d="M2800 1635 l0 -65 45 0 c25 0 45 5 45 10 0 6 -16 10 -35 10 -28 0
-35 4 -35 20 0 15 7 20 25 20 14 0 25 5 25 10 0 6 -11 10 -25 10 -16 0 -25 6
-25 15 0 10 11 15 35 15 19 0 35 5 35 10 0 6 -20 10 -45 10 l-45 0 0 -65z"/>
<path d="M2966 1685 c-43 -44 -17 -110 44 -110 18 0 35 5 37 12 3 7 -8 10 -28
10 -38 -2 -55 19 -45 56 5 23 12 27 41 27 19 0 35 5 35 10 0 16 -67 12 -84 -5z"/>
<path d="M3116 1670 c1 -16 2 -46 3 -65 2 -53 21 -42 21 12 l0 47 33 -47 c45
-65 57 -61 57 18 0 47 -4 65 -13 65 -9 0 -12 -12 -10 -40 2 -22 0 -40 -5 -40
-4 0 -20 18 -35 40 -34 48 -52 51 -51 10z"/>
<path d="M3306 1678 c-52 -74 48 -151 104 -81 38 48 8 103 -56 103 -23 0 -38
-7 -48 -22z m82 -10 c27 -27 7 -78 -30 -78 -27 0 -52 44 -38 69 12 23 49 28
68 9z"/>
<path d="M3490 1635 l0 -65 39 0 c22 0 43 5 46 10 4 6 -8 10 -29 10 l-36 0 0
55 c0 30 -4 55 -10 55 -6 0 -10 -28 -10 -65z"/>
<path d="M3636 1678 c-22 -30 -20 -60 4 -86 29 -31 73 -29 100 5 38 48 8 103
-56 103 -23 0 -38 -7 -48 -22z m82 -7 c18 -11 11 -61 -10 -75 -34 -21 -71 26
-54 70 6 15 43 19 64 5z"/>
<path d="M3826 1678 c-21 -30 -20 -50 5 -82 16 -21 28 -26 53 -24 25 2 32 8
34 31 2 15 -1 27 -7 27 -6 0 -11 -9 -11 -21 0 -26 -37 -23 -55 6 -22 34 -2 65
40 65 22 0 34 4 30 10 -12 20 -73 11 -89 -12z"/>
<path d="M3990 1635 c0 -37 4 -65 10 -65 6 0 10 28 10 65 0 37 -4 65 -10 65
-6 0 -10 -28 -10 -65z"/>
<path d="M4111 1678 c-5 -13 -16 -41 -25 -62 -17 -42 -12 -62 8 -33 7 9 23 17
36 17 13 0 29 -8 36 -17 23 -33 24 -7 1 55 -23 65 -42 78 -56 40z m33 -34 c9
-23 8 -24 -13 -24 -14 0 -18 5 -14 20 6 24 19 26 27 4z"/>
</g>
</svg>
